# Blender v2.77 (sub 0) OBJ File: 'stall1obj.blend'
# www.blender.org
mtllib stall1obj.mtl
o Cube.016_Cube.021
v -1.613127 0.173778 1.059603
v -1.613127 1.097135 1.059603
v -1.613127 0.173778 -2.696768
v -1.613127 1.097135 -2.696768
v -1.567149 0.173778 1.059603
v -1.567149 1.097135 1.059603
v -1.567149 0.173778 -2.696768
v -1.567149 1.097135 -2.696768
v -1.502161 0.503341 1.653740
v -1.502161 0.540211 1.653740
v -1.502161 0.503341 1.037551
v -1.502161 0.540211 1.037551
v 1.511586 0.503341 1.653740
v 1.511586 0.540211 1.653740
v 1.511586 0.503341 1.037551
v 1.511586 0.540211 1.037551
v -1.507596 0.223095 1.930200
v -1.507596 0.334848 1.930200
v -1.507596 0.223095 1.039036
v -1.507596 1.026150 1.039036
v -1.464861 0.223095 1.930200
v -1.464861 0.334848 1.930200
v -1.464861 0.223095 1.039036
v -1.464861 1.026150 1.039036
v -1.566191 0.233256 1.059442
v -1.566191 1.154992 1.059442
v -1.566191 0.233256 0.248865
v -1.566191 1.154992 0.248865
v 1.556454 0.233256 1.059442
v 1.556454 1.154992 1.059442
v 1.556454 0.233256 0.248865
v 1.556454 1.154992 0.248865
v 1.531417 0.147085 1.161969
v 1.518811 0.147085 1.131530
v 1.525114 0.147085 1.157891
v 1.520500 0.147085 1.146749
v 1.518811 2.707919 1.131530
v 1.531417 2.707919 1.161969
v 1.520500 2.707919 1.146749
v 1.525114 2.707919 1.157891
v 1.518811 0.147085 1.032407
v 1.531417 0.147085 1.001969
v 1.520500 0.147085 1.017188
v 1.525114 0.147085 1.006047
v 1.531417 2.707919 1.001969
v 1.518811 2.707919 1.032407
v 1.525114 2.707919 1.006047
v 1.520500 2.707919 1.017188
v 1.585073 0.147085 1.131530
v 1.572467 0.147085 1.161969
v 1.583384 0.147085 1.146749
v 1.578770 0.147085 1.157891
v 1.572467 2.707919 1.161969
v 1.585073 2.707919 1.131530
v 1.578770 2.707919 1.157891
v 1.583384 2.707919 1.146749
v 1.572467 0.147085 1.001969
v 1.585073 0.147085 1.032407
v 1.578770 0.147085 1.006047
v 1.583384 0.147085 1.017188
v 1.585073 2.707919 1.032407
v 1.572467 2.707919 1.001969
v 1.583384 2.707919 1.017188
v 1.578770 2.707919 1.006047
v -1.661407 0.194180 1.928712
v -1.661407 0.231049 1.928712
v -1.661407 0.194180 -2.857029
v -1.661407 0.231049 -2.857029
v 1.651670 0.194180 1.928712
v 1.651670 0.231049 1.928712
v 1.651670 0.194180 -2.857029
v 1.651670 0.231049 -2.857029
v 1.531417 0.147085 -2.659500
v 1.518811 0.147085 -2.689939
v 1.525114 0.147085 -2.663579
v 1.520500 0.147085 -2.674720
v 1.518811 2.707919 -2.689939
v 1.531417 2.707919 -2.659500
v 1.520500 2.707919 -2.674720
v 1.525114 2.707919 -2.663579
v 1.518811 0.147085 -2.789062
v 1.531417 0.147085 -2.819500
v 1.520500 0.147085 -2.804281
v 1.525114 0.147085 -2.815422
v 1.531417 2.707919 -2.819500
v 1.518811 2.707919 -2.789062
v 1.525114 2.707919 -2.815422
v 1.520500 2.707919 -2.804281
v 1.585073 0.147085 -2.689939
v 1.572467 0.147085 -2.659500
v 1.583384 0.147085 -2.674720
v 1.578770 0.147085 -2.663579
v 1.572467 2.707919 -2.659500
v 1.585073 2.707919 -2.689939
v 1.578770 2.707919 -2.663579
v 1.583384 2.707919 -2.674720
v 1.572467 0.147085 -2.819500
v 1.585073 0.147085 -2.789062
v 1.578770 0.147085 -2.815422
v 1.583384 0.147085 -2.804281
v 1.585073 2.707919 -2.789062
v 1.572467 2.707919 -2.819500
v 1.583384 2.707919 -2.804281
v 1.578770 2.707919 -2.815422
v -1.591344 0.147085 1.161969
v -1.603949 0.147085 1.131530
v -1.597646 0.147085 1.157891
v -1.602260 0.147085 1.146749
v -1.603949 2.707919 1.131530
v -1.591344 2.707919 1.161969
v -1.602260 2.707919 1.146749
v -1.597646 2.707919 1.157891
v -1.603949 0.147085 1.032407
v -1.591344 0.147085 1.001969
v -1.602260 0.147085 1.017188
v -1.597646 0.147085 1.006047
v -1.591344 2.707919 1.001969
v -1.603949 2.707919 1.032407
v -1.597646 2.707919 1.006047
v -1.602260 2.707919 1.017188
v -1.537688 0.147085 1.131530
v -1.550293 0.147085 1.161969
v -1.539376 0.147085 1.146749
v -1.543991 0.147085 1.157891
v -1.550293 2.707919 1.161969
v -1.537688 2.707919 1.131530
v -1.543991 2.707919 1.157891
v -1.539376 2.707919 1.146749
v -1.550293 0.147085 1.001969
v -1.537688 0.147085 1.032407
v -1.543991 0.147085 1.006047
v -1.539376 0.147085 1.017188
v -1.537688 2.707919 1.032407
v -1.550293 2.707919 1.001969
v -1.539376 2.707919 1.017188
v -1.543991 2.707919 1.006047
v -1.591344 0.147085 -2.659500
v -1.603949 0.147085 -2.689939
v -1.597646 0.147085 -2.663579
v -1.602260 0.147085 -2.674720
v -1.603949 2.707919 -2.689939
v -1.591344 2.707919 -2.659500
v -1.602260 2.707919 -2.674720
v -1.597646 2.707919 -2.663579
v -1.603949 0.147085 -2.789062
v -1.591344 0.147085 -2.819500
v -1.602260 0.147085 -2.804281
v -1.597646 0.147085 -2.815422
v -1.591344 2.707919 -2.819500
v -1.603949 2.707919 -2.789062
v -1.597646 2.707919 -2.815422
v -1.602260 2.707919 -2.804281
v -1.537688 0.147085 -2.689939
v -1.550293 0.147085 -2.659500
v -1.539376 0.147085 -2.674720
v -1.543991 0.147085 -2.663579
v -1.550293 2.707919 -2.659500
v -1.537688 2.707919 -2.689939
v -1.543991 2.707919 -2.663579
v -1.539376 2.707919 -2.674720
v -1.550293 0.147085 -2.819500
v -1.537688 0.147085 -2.789062
v -1.543991 0.147085 -2.815422
v -1.539376 0.147085 -2.804281
v -1.537688 2.707919 -2.789062
v -1.550293 2.707919 -2.819500
v -1.539376 2.707919 -2.804281
v -1.543991 2.707919 -2.815422
v 1.477413 0.223095 1.930200
v 1.477413 0.334848 1.930200
v 1.477413 0.223095 1.039036
v 1.477413 1.026150 1.039036
v 1.520148 0.223095 1.930200
v 1.520148 0.334848 1.930200
v 1.520148 0.223095 1.039036
v 1.520148 1.026150 1.039036
v 1.537901 0.173778 1.059603
v 1.537901 1.097135 1.059603
v 1.537901 0.173778 -2.696768
v 1.537901 1.097135 -2.696768
v 1.583879 0.173778 1.059603
v 1.583879 1.097135 1.059603
v 1.583879 0.173778 -2.696768
v 1.583879 1.097135 -2.696768
v 1.521733 0.173778 -2.605902
v 1.521733 1.097135 -2.605902
v -1.549371 0.173778 -2.605902
v -1.549371 1.097135 -2.605902
v 1.521733 0.173778 -2.673054
v 1.521733 1.097135 -2.673054
v -1.549371 0.173778 -2.673054
v -1.549371 1.097135 -2.673054
v 1.570206 2.492074 -2.817920
v 1.570206 2.492074 -2.862924
v 0.013391 3.634010 -0.742335
v 0.013391 3.634643 -0.742815
v -1.611344 2.492074 -2.817920
v -1.611344 2.492074 -2.862925
v -0.054530 3.634010 -0.742335
v -0.054530 3.634643 -0.742815
v 1.570206 2.674552 -2.855378
v 1.570206 2.707431 -2.777319
v -1.611344 2.674552 -2.855378
v -1.611345 2.707431 -2.777320
v 1.570206 2.781224 -2.739955
v -1.611345 2.746845 -2.717453
v 1.570206 2.746845 -2.717453
v -1.611345 2.781224 -2.739955
v 1.570206 2.726543 -2.763515
v -1.611344 2.736092 -2.828891
v 1.570206 2.736092 -2.828890
v -1.611345 2.726543 -2.763515
v 1.570206 2.492074 -2.817920
v 1.570206 2.492074 -2.862924
v 0.013391 3.634010 -0.742335
v 0.013391 3.634643 -0.742815
v -1.611344 2.492074 -2.817920
v -1.611344 2.492074 -2.862925
v -0.054530 3.634010 -0.742335
v -0.054530 3.634643 -0.742815
v 1.570206 2.674552 -2.855378
v 1.570206 2.707431 -2.777319
v -1.611344 2.674552 -2.855378
v -1.611345 2.707431 -2.777320
v 1.570206 2.781224 -2.739955
v -1.611345 2.746845 -2.717453
v 1.570206 2.746845 -2.717453
v -1.611345 2.781224 -2.739955
v 1.570206 2.726543 -2.763515
v -1.611344 2.736092 -2.828891
v 1.570206 2.736092 -2.828890
v -1.611345 2.726543 -2.763515
v 1.618546 2.492074 1.233513
v 1.653032 2.492074 1.233513
v 0.028076 3.634010 -0.778778
v 0.028444 3.634643 -0.778778
v 1.618546 2.492074 -2.878863
v 1.653032 2.492074 -2.878863
v 0.028076 3.634010 -0.866572
v 0.028444 3.634643 -0.866572
v 1.647249 2.674552 1.233513
v 1.587435 2.707431 1.233513
v 1.647249 2.674552 -2.878863
v 1.587435 2.707431 -2.878863
v 1.558803 2.781224 1.233513
v 1.541561 2.746845 -2.878863
v 1.541560 2.746845 1.233513
v 1.558803 2.781224 -2.878863
v 1.576857 2.726543 1.233513
v 1.626953 2.736092 -2.878863
v 1.626952 2.736092 1.233513
v 1.576857 2.726543 -2.878863
v -1.658420 2.492074 1.297876
v -1.658420 2.492074 1.342880
v -0.055535 3.634010 -0.777710
v -0.055535 3.634643 -0.777229
v 1.617282 2.492074 1.297875
v 1.617282 2.492074 1.342880
v 0.014396 3.634010 -0.777710
v 0.014396 3.634643 -0.777229
v -1.658420 2.674552 1.335334
v -1.658420 2.707431 1.257275
v 1.617282 2.674552 1.335333
v 1.617281 2.707431 1.257275
v -1.658420 2.781224 1.219911
v 1.617281 2.746845 1.197408
v -1.658420 2.746845 1.197409
v 1.617281 2.781224 1.219911
v -1.658420 2.726543 1.243471
v 1.617282 2.736092 1.308846
v -1.658420 2.736092 1.308846
v 1.617281 2.726543 1.243471
v -1.638726 2.492073 -2.878863
v -1.673212 2.492073 -2.878863
v -0.048256 3.634010 -0.866572
v -0.048624 3.634643 -0.866572
v -1.638726 2.492073 1.233513
v -1.673212 2.492073 1.233513
v -0.048256 3.634010 -0.778778
v -0.048624 3.634643 -0.778778
v -1.667429 2.674552 -2.878863
v -1.607615 2.707431 -2.878863
v -1.667429 2.674552 1.233513
v -1.607615 2.707431 1.233513
v -1.578984 2.781224 -2.878863
v -1.561741 2.746845 1.233513
v -1.561741 2.746845 -2.878863
v -1.578984 2.781224 1.233513
v -1.597037 2.726543 -2.878863
v -1.647133 2.736092 1.233513
v -1.647133 2.736092 -2.878863
v -1.597037 2.726543 1.233513
vn -1.0000 0.0000 0.0000
vn 0.0000 0.0000 -1.0000
vn 1.0000 0.0000 0.0000
vn 0.0000 0.0000 1.0000
vn 0.0000 -1.0000 0.0000
vn 0.0000 1.0000 0.0000
vn 0.0000 0.7901 0.6129
vn -0.5432 0.0000 0.8396
vn -0.9239 0.0000 0.3826
vn -0.9939 0.0000 0.1103
vn -0.5432 0.0000 -0.8396
vn -0.9239 0.0000 -0.3826
vn -0.9939 0.0000 -0.1103
vn 0.9939 0.0000 -0.1103
vn 0.9239 0.0000 -0.3826
vn 0.5432 0.0000 -0.8396
vn 0.5432 0.0000 0.8396
vn 0.9239 0.0000 0.3826
vn 0.9939 0.0000 0.1103
vn -0.5433 0.0000 0.8396
vn 0.8084 0.3230 0.4921
vn 0.0000 0.6045 0.7966
vn -0.0000 -0.9122 0.4097
vn 0.0000 0.9196 -0.3929
vn 0.0000 0.0413 -0.9991
vn -0.0000 -0.1853 0.9827
vn -0.8084 0.3230 0.4921
vn 0.0000 0.8917 -0.4525
vn -0.0000 -0.9151 0.4033
vn -0.0000 -0.5855 0.8107
vn 0.0000 0.3953 -0.9185
vn -0.6740 0.3390 0.6564
vn -0.8645 0.5026 0.0000
vn -0.5057 -0.8627 0.0000
vn 0.4870 0.8734 0.0000
vn 0.9995 0.0317 0.0000
vn -0.9897 -0.1430 -0.0000
vn -0.6740 0.3390 -0.6564
vn 0.5521 0.8337 0.0000
vn -0.4986 -0.8668 -0.0000
vn -0.8749 -0.4842 -0.0000
vn 0.9497 0.3132 0.0000
vn -0.8001 0.3292 -0.5015
vn 0.0000 0.6044 -0.7967
vn -0.0000 -0.9122 -0.4097
vn 0.0000 0.9196 0.3929
vn 0.0000 0.0413 0.9991
vn -0.0000 -0.1853 -0.9827
vn 0.8001 0.3292 -0.5015
vn 0.0000 0.8917 0.4525
vn -0.0000 -0.9151 -0.4033
vn -0.0000 -0.5855 -0.8107
vn 0.0000 0.3953 0.9185
vn 0.6740 0.3390 -0.6564
vn 0.8645 0.5026 0.0000
vn 0.5057 -0.8627 0.0000
vn -0.4870 0.8734 0.0000
vn -0.9995 0.0317 0.0000
vn 0.9897 -0.1430 0.0000
vn 0.6740 0.3390 0.6564
vn -0.5521 0.8337 0.0000
vn 0.4986 -0.8668 0.0000
vn 0.8749 -0.4842 0.0000
vn -0.9497 0.3132 0.0000
usemtl None
s off
f 2//1 4//1 3//1 1//1
f 4//2 8//2 7//2 3//2
f 8//3 6//3 5//3 7//3
f 6//4 2//4 1//4 5//4
f 1//5 3//5 7//5 5//5
f 6//6 8//6 4//6 2//6
f 10//1 12//1 11//1 9//1
f 12//2 16//2 15//2 11//2
f 16//3 14//3 13//3 15//3
f 14//4 10//4 9//4 13//4
f 9//5 11//5 15//5 13//5
f 14//6 16//6 12//6 10//6
f 18//1 20//1 19//1 17//1
f 20//2 24//2 23//2 19//2
f 24//3 22//3 21//3 23//3
f 22//4 18//4 17//4 21//4
f 17//5 19//5 23//5 21//5
f 22//7 24//7 20//7 18//7
f 26//1 28//1 27//1 25//1
f 28//2 32//2 31//2 27//2
f 32//3 30//3 29//3 31//3
f 30//4 26//4 25//4 29//4
f 25//5 27//5 31//5 29//5
f 30//6 32//6 28//6 26//6
f 33//5 35//5 36//5 34//5 41//5 43//5 44//5 42//5 57//5 59//5 60//5 58//5 49//5 51//5 52//5 50//5
f 61//3 54//3 49//3 58//3
f 53//6 55//6 56//6 54//6 61//6 63//6 64//6 62//6 45//6 47//6 48//6 46//6 37//6 39//6 40//6 38//6
f 53//4 38//4 33//4 50//4
f 45//2 62//2 57//2 42//2
f 33//8 38//8 40//8 35//8
f 35//9 40//9 39//9 36//9
f 36//10 39//10 37//10 34//10
f 45//11 42//11 44//11 47//11
f 47//12 44//12 43//12 48//12
f 48//13 43//13 41//13 46//13
f 61//14 58//14 60//14 63//14
f 63//15 60//15 59//15 64//15
f 64//16 59//16 57//16 62//16
f 53//17 50//17 52//17 55//17
f 55//18 52//18 51//18 56//18
f 56//19 51//19 49//19 54//19
f 37//1 46//1 41//1 34//1
f 66//1 68//1 67//1 65//1
f 68//2 72//2 71//2 67//2
f 72//3 70//3 69//3 71//3
f 70//4 66//4 65//4 69//4
f 65//5 67//5 71//5 69//5
f 70//6 72//6 68//6 66//6
f 73//5 75//5 76//5 74//5 81//5 83//5 84//5 82//5 97//5 99//5 100//5 98//5 89//5 91//5 92//5 90//5
f 101//3 94//3 89//3 98//3
f 93//6 95//6 96//6 94//6 101//6 103//6 104//6 102//6 85//6 87//6 88//6 86//6 77//6 79//6 80//6 78//6
f 93//4 78//4 73//4 90//4
f 85//2 102//2 97//2 82//2
f 73//8 78//8 80//8 75//8
f 75//9 80//9 79//9 76//9
f 76//10 79//10 77//10 74//10
f 85//11 82//11 84//11 87//11
f 87//12 84//12 83//12 88//12
f 88//13 83//13 81//13 86//13
f 101//14 98//14 100//14 103//14
f 103//15 100//15 99//15 104//15
f 104//16 99//16 97//16 102//16
f 93//17 90//17 92//17 95//17
f 95//18 92//18 91//18 96//18
f 96//19 91//19 89//19 94//19
f 77//1 86//1 81//1 74//1
f 105//5 107//5 108//5 106//5 113//5 115//5 116//5 114//5 129//5 131//5 132//5 130//5 121//5 123//5 124//5 122//5
f 133//3 126//3 121//3 130//3
f 125//6 127//6 128//6 126//6 133//6 135//6 136//6 134//6 117//6 119//6 120//6 118//6 109//6 111//6 112//6 110//6
f 125//4 110//4 105//4 122//4
f 117//2 134//2 129//2 114//2
f 105//8 110//8 112//8 107//8
f 107//9 112//9 111//9 108//9
f 108//10 111//10 109//10 106//10
f 117//11 114//11 116//11 119//11
f 119//12 116//12 115//12 120//12
f 120//13 115//13 113//13 118//13
f 133//14 130//14 132//14 135//14
f 135//15 132//15 131//15 136//15
f 136//16 131//16 129//16 134//16
f 125//17 122//17 124//17 127//17
f 127//18 124//18 123//18 128//18
f 128//19 123//19 121//19 126//19
f 109//1 118//1 113//1 106//1
f 137//5 139//5 140//5 138//5 145//5 147//5 148//5 146//5 161//5 163//5 164//5 162//5 153//5 155//5 156//5 154//5
f 165//3 158//3 153//3 162//3
f 157//6 159//6 160//6 158//6 165//6 167//6 168//6 166//6 149//6 151//6 152//6 150//6 141//6 143//6 144//6 142//6
f 157//4 142//4 137//4 154//4
f 149//2 166//2 161//2 146//2
f 137//20 142//20 144//20 139//20
f 139//9 144//9 143//9 140//9
f 140//10 143//10 141//10 138//10
f 149//11 146//11 148//11 151//11
f 151//12 148//12 147//12 152//12
f 152//13 147//13 145//13 150//13
f 165//14 162//14 164//14 167//14
f 167//15 164//15 163//15 168//15
f 168//16 163//16 161//16 166//16
f 157//17 154//17 156//17 159//17
f 159//18 156//18 155//18 160//18
f 160//19 155//19 153//19 158//19
f 141//1 150//1 145//1 138//1
f 170//1 172//1 171//1 169//1
f 172//2 176//2 175//2 171//2
f 176//3 174//3 173//3 175//3
f 174//4 170//4 169//4 173//4
f 169//5 171//5 175//5 173//5
f 174//7 176//7 172//7 170//7
f 178//1 180//1 179//1 177//1
f 180//2 184//2 183//2 179//2
f 184//3 182//3 181//3 183//3
f 182//4 178//4 177//4 181//4
f 177//5 179//5 183//5 181//5
f 182//6 184//6 180//6 178//6
f 186//4 188//4 187//4 185//4
f 188//1 192//1 191//1 187//1
f 192//2 190//2 189//2 191//2
f 190//3 186//3 185//3 189//3
f 185//5 187//5 191//5 189//5
f 190//6 192//6 188//6 186//6
f 205//21 196//21 195//21 207//21
f 196//22 200//22 199//22 195//22
f 203//1 198//1 197//1 204//1
f 198//5 194//5 193//5 197//5
f 207//23 195//23 199//23 206//23
f 208//24 200//24 196//24 205//24
f 198//25 203//25 201//25 194//25
f 193//26 202//26 204//26 197//26
f 210//1 203//1 204//1 212//1
f 194//3 201//3 202//3 193//3
f 200//27 208//27 206//27 199//27
f 210//28 208//28 205//28 211//28
f 209//29 207//29 206//29 212//29
f 211//3 205//3 207//3 209//3
f 201//3 211//3 209//3 202//3
f 202//30 209//30 212//30 204//30
f 203//31 210//31 211//31 201//31
f 208//1 210//1 212//1 206//1
f 225//21 216//21 215//21 227//21
f 216//22 220//22 219//22 215//22
f 223//1 218//1 217//1 224//1
f 218//5 214//5 213//5 217//5
f 227//23 215//23 219//23 226//23
f 228//24 220//24 216//24 225//24
f 218//25 223//25 221//25 214//25
f 213//26 222//26 224//26 217//26
f 230//1 223//1 224//1 232//1
f 214//3 221//3 222//3 213//3
f 220//27 228//27 226//27 219//27
f 230//28 228//28 225//28 231//28
f 229//29 227//29 226//29 232//29
f 231//3 225//3 227//3 229//3
f 221//3 231//3 229//3 222//3
f 222//30 229//30 232//30 224//30
f 223//31 230//31 231//31 221//31
f 228//1 230//1 232//1 226//1
f 245//32 236//32 235//32 247//32
f 236//33 240//33 239//33 235//33
f 243//2 238//2 237//2 244//2
f 238//5 234//5 233//5 237//5
f 247//34 235//34 239//34 246//34
f 248//35 240//35 236//35 245//35
f 238//36 243//36 241//36 234//36
f 233//37 242//37 244//37 237//37
f 250//2 243//2 244//2 252//2
f 234//4 241//4 242//4 233//4
f 240//38 248//38 246//38 239//38
f 250//39 248//39 245//39 251//39
f 249//40 247//40 246//40 252//40
f 251//4 245//4 247//4 249//4
f 241//4 251//4 249//4 242//4
f 242//41 249//41 252//41 244//41
f 243//42 250//42 251//42 241//42
f 248//2 250//2 252//2 246//2
f 265//43 256//43 255//43 267//43
f 256//44 260//44 259//44 255//44
f 263//3 258//3 257//3 264//3
f 258//5 254//5 253//5 257//5
f 267//45 255//45 259//45 266//45
f 268//46 260//46 256//46 265//46
f 258//47 263//47 261//47 254//47
f 253//48 262//48 264//48 257//48
f 270//3 263//3 264//3 272//3
f 254//1 261//1 262//1 253//1
f 260//49 268//49 266//49 259//49
f 270//50 268//50 265//50 271//50
f 269//51 267//51 266//51 272//51
f 271//1 265//1 267//1 269//1
f 261//1 271//1 269//1 262//1
f 262//52 269//52 272//52 264//52
f 263//53 270//53 271//53 261//53
f 268//3 270//3 272//3 266//3
f 285//54 276//54 275//54 287//54
f 276//55 280//55 279//55 275//55
f 283//4 278//4 277//4 284//4
f 278//5 274//5 273//5 277//5
f 287//56 275//56 279//56 286//56
f 288//57 280//57 276//57 285//57
f 278//58 283//58 281//58 274//58
f 273//59 282//59 284//59 277//59
f 290//4 283//4 284//4 292//4
f 274//2 281//2 282//2 273//2
f 280//60 288//60 286//60 279//60
f 290//61 288//61 285//61 291//61
f 289//62 287//62 286//62 292//62
f 291//2 285//2 287//2 289//2
f 281//2 291//2 289//2 282//2
f 282//63 289//63 292//63 284//63
f 283//64 290//64 291//64 281//64
f 288//4 290//4 292//4 286//4
